<svg id="color" enable-background="new 0 0 24 24" height="512" viewBox="0 0 24 24" width="512" xmlns="http://www.w3.org/2000/svg"><path d="m24 3v16c0 1.65-1.35 3-3 3h-4v-2h4c.55 0 1-.45 1-1v-14h-20v14c0 .55.45 1 1 1h4v2h-4c-1.65 0-3-1.35-3-3v-16c0-1.65 1.35-3 3-3h18c1.65 0 3 1.35 3 3z" fill="#607d8b"/><path d="m22 5v14c0 .55-.45 1-1 1h-4v-3.39c.54-.38.98-.91 1.23-1.53.34-.811.36-1.73.03-2.58.33-.83.32-1.76-.03-2.59-.33-.81-.98-1.47-1.8-1.84-.36-.81-1.02-1.46-1.84-1.8-.83-.35-1.76-.36-2.59-.04-.83-.32-1.76-.31-2.59.04-.81.33-1.47.98-1.84 1.8-.81.36-1.46 1.02-1.8 1.85-.34.81-.36 1.73-.03 2.58-.33.83-.32 1.76.03 2.59.25.61.68 1.14 1.23 1.52v3.39h-4c-.55 0-1-.45-1-1v-14z" fill="#fff"/><path d="m14.25 24c-.18 0-.358-.064-.498-.189l-1.752-1.557-1.752 1.557c-.22.196-.536.245-.805.123-.27-.122-.443-.389-.443-.684v-8.24c0-.414.336-.75.75-.75h4.5c.414 0 .75.336.75.75v8.24c0 .295-.173.562-.443.684-.099.045-.203.066-.307.066z" fill="#f44336"/><path d="m13.254 17c-.208 0-.416-.045-.609-.132l-.657-.299-.633.298c-.371.17-.798.176-1.174.02-.375-.155-.671-.463-.814-.843l-.253-.674-.659-.237c-.379-.143-.687-.439-.842-.814-.156-.375-.149-.803.019-1.174l.299-.656-.298-.633c-.168-.371-.175-.799-.019-1.174s.463-.671.843-.814l.673-.254.238-.659c.142-.379.438-.686.813-.842.376-.156.804-.148 1.174.019l.645.293.645-.293c.371-.168.799-.176 1.174-.02s.671.463.814.843l.253.674.659.238c.379.142.686.438.842.814.156.375.149.803-.019 1.174l-.299.657.298.633c.168.371.175.799.02 1.174-.156.375-.463.672-.843.814l-.674.253-.238.659c-.142.379-.438.687-.813.842-.18.075-.373.113-.565.113zm-.955-7.887h.01z" fill="#ffc107"/><path d="m12 0h-9c-1.65 0-3 1.35-3 3v16c0 1.65 1.35 3 3 3h4v-2h-4c-.55 0-1-.45-1-1v-14h10z" fill="#546d79"/><path d="m12 5h-10v14c0 .55.45 1 1 1h4v-3.39c-.55-.38-.98-.91-1.23-1.521-.35-.83-.36-1.76-.03-2.59-.33-.85-.31-1.77.03-2.58.34-.83.99-1.49 1.8-1.85.37-.819 1.03-1.469 1.84-1.799.431-.182.888-.272 1.344-.272.424 0 .846.078 1.246.232z" fill="#dedede"/><path d="m9 15.329v7.921c0 .295.173.562.443.684.095.043.196.065.297.066h.022c.176-.003.35-.068.487-.189l1.751-1.557v-5.679l-.012-.005-.633.298c-.193.088-.4.132-.609.132-.193 0-.385-.038-.566-.113-.375-.155-.671-.463-.814-.843l-.252-.674z" fill="#d43a2f"/><path d="m10.746 8.001c-.192 0-.384.037-.565.112-.375.156-.671.463-.813.842l-.238.659-.674.253c-.38.143-.688.439-.843.814-.156.375-.149.803.019 1.174l.298.633-.299.656c-.168.371-.175.799-.019 1.174s.463.672.842.814l.546.197.114.041.253.674c.143.38.439.688.814.843.181.075.373.113.566.113.208 0 .416-.044.609-.132l.633-.298.011.005v-8.15l-.645-.293c-.193-.087-.401-.131-.609-.131z" fill="#dea806"/></svg>